<svg width="384" height="362" viewBox="0 0 384 362" fill="none" xmlns="http://www.w3.org/2000/svg">
<path d="M96 62H188V96H123.5L96 62Z" fill="#36A1CB"/>
<path d="M154 145V62H188V185L154 145Z" fill="#36A1CB"/>
<path d="M284.954 122.545L192.957 123.261L192.692 89.2619L257.19 88.7601L284.954 122.545Z" fill="#0047B6"/>
<path d="M226.31 39.9988L226.956 122.996L192.957 123.261L192 0.264513L226.31 39.9988Z" fill="#0047B6"/>
<path d="M29.2181 251.935V302.41C28.2879 302.41 27.5219 302.383 26.92 302.328C24.5672 302.109 23.2814 302 23.0626 302C22.1324 302 20.9287 302.055 19.4514 302.164C17.974 302.328 17.1259 302.41 16.9071 302.41V251.935C14.0072 251.935 11.4629 252.045 9.27427 252.264C7.14037 252.428 4.5961 252.701 1.64146 253.084C1.7509 252.318 1.83297 251.662 1.88768 251.115C1.99711 250.513 2.05183 249.993 2.05183 249.555C2.05183 248.789 1.99711 248.133 1.88768 247.585C1.77825 246.984 1.69618 246.491 1.64146 246.108H43.9092C43.7997 246.874 43.6903 247.558 43.5809 248.16C43.5262 248.707 43.4988 249.172 43.4988 249.555C43.4988 250.376 43.5535 251.087 43.6629 251.689C43.7724 252.236 43.8545 252.701 43.9092 253.084C39.9149 252.592 37.5075 252.318 36.6867 252.264C34.2245 252.045 31.735 251.935 29.2181 251.935ZM51.7606 302.41V246.108H69.2422C73.0176 246.108 75.7807 246.19 77.5316 246.354C79.2825 246.464 80.9513 246.929 82.5381 247.75C87.2983 250.267 89.6784 254.179 89.6784 259.486C89.6784 263.371 88.5294 266.599 86.2314 269.171C83.9333 271.742 80.8145 273.439 76.875 274.259C79.0089 277.98 81.9909 282.795 85.821 288.704C88.3926 292.644 90.253 295.516 91.402 297.322L94.6028 302.41C93.5632 302.41 92.1406 302.328 90.335 302.164C88.5841 302.055 87.5172 302 87.1342 302C86.0946 302 84.672 302.055 82.8664 302.164C81.1155 302.328 80.0759 302.41 79.7476 302.41L69.9809 285.175L64.6461 276.065H64.0716V302.41C63.1414 302.41 62.3754 302.383 61.7736 302.328C59.4208 302.109 58.135 302 57.9161 302C56.986 302 55.7822 302.055 54.3049 302.164C52.8276 302.328 51.9795 302.41 51.7606 302.41ZM64.0716 250.54V272.536C64.4546 272.59 64.8103 272.618 65.1386 272.618C65.4669 272.618 65.8225 272.618 66.2055 272.618C73.3732 272.618 76.9571 268.678 76.9571 260.799C76.9571 259.486 76.8203 258.118 76.5467 256.696C76.0543 254.124 74.7958 252.373 72.7714 251.443C71.4035 250.841 69.2969 250.54 66.4517 250.54H64.0716ZM103.083 279.594V246.108C104.013 246.108 105.217 246.19 106.695 246.354C108.172 246.464 109.02 246.519 109.239 246.519C110.169 246.519 110.935 246.491 111.537 246.436C113.89 246.218 115.175 246.108 115.394 246.108V269.417V273.11C115.394 275.189 115.394 277.241 115.394 279.266C115.449 281.29 115.668 283.342 116.051 285.421C116.434 287.446 116.872 289.115 117.364 290.428C117.911 291.686 118.896 292.999 120.319 294.367C122.836 296.72 125.954 297.896 129.675 297.896C133.56 297.896 136.597 297.158 138.785 295.68C140.974 294.203 142.807 291.631 144.284 287.965C144.941 286.379 145.351 284.135 145.515 281.235C145.679 278.336 145.761 274.916 145.761 270.976V246.108L149.044 246.354L152.327 246.108V275.326C152.327 281.345 151.944 285.75 151.178 288.54C149.974 292.972 147.458 296.501 143.627 299.127C141.548 300.659 139.168 301.754 136.487 302.41C133.806 303.122 131.016 303.477 128.116 303.477C122.425 303.477 117.61 302.52 113.671 300.605C108.911 298.252 105.819 294.613 104.396 289.689C103.959 288.212 103.63 286.598 103.412 284.847C103.193 283.041 103.083 281.29 103.083 279.594ZM192.816 256.696H191.585C190.764 254.452 189.56 252.701 187.973 251.443C186.387 250.184 184.444 249.555 182.146 249.555C179.082 249.555 176.811 250.294 175.334 251.771C173.857 253.194 173.118 255.136 173.118 257.598C173.118 260.553 175.252 263.207 179.52 265.559C187.289 269.827 191.311 272.071 191.585 272.289C195.907 275.682 198.068 280.059 198.068 285.421C198.068 290.674 196.044 294.996 191.995 298.389C187.946 301.781 182.721 303.477 176.319 303.477C173.911 303.477 171.559 303.176 169.261 302.575C167.017 302.027 164.965 301.152 163.105 299.948C163.762 297.65 164.254 295.79 164.582 294.367C164.911 292.945 165.212 291.33 165.485 289.525H167.045C167.647 292.37 168.96 294.586 170.984 296.173C173.009 297.76 175.471 298.553 178.371 298.553C181.107 298.553 183.377 297.814 185.183 296.337C187.043 294.86 187.973 292.753 187.973 290.017C187.973 286.516 185.867 283.616 181.654 281.318C177.714 279.238 173.802 277.159 169.917 275.08C165.649 271.852 163.515 267.447 163.515 261.866C163.515 256.887 165.102 252.838 168.276 249.719C171.723 246.327 176.456 244.631 182.474 244.631C185.21 244.631 187.782 245.041 190.189 245.862C192.651 246.683 194.402 247.585 195.442 248.57C194.84 250.157 194.375 251.47 194.047 252.51C193.5 254.37 193.089 255.765 192.816 256.696ZM219.571 246.108V296.091C223.073 296.091 226.055 296.009 228.517 295.845C231.034 295.68 234.317 295.379 238.366 294.942C238.257 295.544 238.147 296.173 238.038 296.829C237.983 297.486 237.956 298.033 237.956 298.471C237.956 298.854 238.011 299.428 238.12 300.194C238.229 300.96 238.312 301.562 238.366 302H207.261V246.108C208.191 246.108 209.394 246.19 210.872 246.354C212.349 246.464 213.197 246.519 213.416 246.519C214.346 246.519 215.112 246.491 215.714 246.436C218.067 246.218 219.353 246.108 219.571 246.108ZM249.2 302.41V246.108C250.13 246.108 251.334 246.19 252.811 246.354C254.288 246.464 255.137 246.519 255.355 246.519C256.286 246.519 257.052 246.491 257.653 246.436C260.006 246.218 261.292 246.108 261.511 246.108V302.41C260.581 302.41 259.815 302.383 259.213 302.328C256.86 302.109 255.574 302 255.355 302C254.425 302 253.222 302.055 251.744 302.164C250.267 302.328 249.419 302.41 249.2 302.41ZM275.956 302.246V246.108H284.082C287.693 250.048 291.605 254.261 295.818 258.747C298.171 261.21 302.165 265.505 307.801 271.633C313.491 277.761 317.403 282.056 319.537 284.518V246.108L322.82 246.354L326.103 246.108V302.41L319.127 302.328C314.476 297.185 309.853 292.014 305.257 286.816C300.442 281.454 295.846 276.475 291.468 271.879L282.522 262.523V302.246L279.239 302L275.956 302.246ZM338.933 302.41V246.108C339.863 246.108 341.067 246.19 342.544 246.354C344.021 246.464 344.87 246.519 345.088 246.519C346.019 246.519 346.785 246.491 347.386 246.436C349.739 246.218 351.025 246.108 351.244 246.108V271.797C359.123 262.66 366.236 254.097 372.583 246.108C373.568 246.218 374.416 246.327 375.127 246.436C375.893 246.491 376.522 246.519 377.015 246.519C377.945 246.519 378.711 246.491 379.313 246.436C379.915 246.327 380.599 246.218 381.365 246.108V246.765L367.905 260.881L360.108 269.499L382.185 301.261V302.41C381.255 302.41 380.489 302.383 379.887 302.328C377.535 302.109 376.249 302 376.03 302C375.1 302 373.896 302.055 372.419 302.164C370.941 302.328 370.093 302.41 369.874 302.41L351.244 276.311V302.41C350.314 302.41 349.548 302.383 348.946 302.328C346.593 302.109 345.307 302 345.088 302C344.158 302 342.954 302.055 341.477 302.164C340 302.328 339.152 302.41 338.933 302.41Z" fill="white"/>
<path d="M83.3211 342.095C83.3211 340.438 83.3091 338.865 83.2851 337.377C83.2851 335.864 83.2731 334.495 83.2491 333.27C81.3519 333.294 79.7429 333.342 78.4221 333.414C77.1013 333.486 76.0446 333.606 75.2522 333.774C75.3002 333.582 75.3362 333.39 75.3602 333.198C75.3842 333.006 75.3962 332.778 75.3962 332.514C75.3962 332.225 75.3842 331.997 75.3602 331.829C75.3362 331.637 75.3002 331.445 75.2522 331.253C75.8045 331.301 76.4889 331.349 77.3054 331.397C78.1219 331.421 78.9744 331.445 79.863 331.469C80.7515 331.469 81.6401 331.469 82.5286 331.469C83.4172 331.469 84.2217 331.469 84.9421 331.469C85.8306 331.469 86.7192 331.469 87.6077 331.469C88.5203 331.469 89.3968 331.469 90.2373 331.469C91.0779 331.445 91.8704 331.421 92.6148 331.397C93.3593 331.349 94.0197 331.301 94.596 331.253C94.548 331.421 94.512 331.613 94.488 331.829C94.4639 332.021 94.4519 332.249 94.4519 332.514C94.4519 332.778 94.4639 333.006 94.488 333.198C94.512 333.39 94.548 333.582 94.596 333.774C94.0437 333.678 93.1671 333.582 91.9664 333.486C90.7657 333.366 89.0846 333.294 86.9233 333.27C86.8993 334.519 86.8753 335.768 86.8513 337.016C86.8513 338.265 86.8513 339.502 86.8513 340.727C86.8513 341.807 86.8393 342.972 86.8152 344.221C86.8152 345.446 86.8152 346.718 86.8152 348.039C86.8393 349.36 86.8633 350.705 86.8873 352.074C86.9353 353.442 87.0074 354.811 87.1034 356.18C86.479 356.084 85.9747 356.024 85.5905 356C85.2063 355.976 84.9421 355.964 84.798 355.964C84.3898 355.964 84.0175 355.988 83.6813 356.036C83.3451 356.084 83.093 356.132 82.9249 356.18C83.069 354.187 83.165 351.954 83.213 349.48C83.2851 347.006 83.3211 344.545 83.3211 342.095ZM110.506 337.593C110.506 336.536 110.302 335.696 109.893 335.071C109.509 334.447 109.005 333.966 108.38 333.63C107.78 333.294 107.108 333.078 106.363 332.982C105.643 332.886 104.958 332.838 104.31 332.838C103.782 332.838 103.325 332.862 102.941 332.91C102.581 332.934 102.281 332.97 102.04 333.018C101.992 333.834 101.968 334.651 101.968 335.467C101.968 336.284 101.968 337.1 101.968 337.917C101.968 338.325 101.968 338.781 101.968 339.286C101.968 339.766 101.968 340.246 101.968 340.727C101.992 341.183 102.004 341.603 102.004 341.987C102.004 342.372 102.004 342.66 102.004 342.852C102.341 342.9 102.629 342.924 102.869 342.924C103.133 342.924 103.481 342.912 103.914 342.888C104.322 342.864 104.886 342.816 105.607 342.744C106.351 342.648 107.084 342.432 107.804 342.095C108.524 341.759 109.149 341.243 109.677 340.547C110.23 339.826 110.506 338.841 110.506 337.593ZM116.485 356.18C116.101 356.132 115.753 356.084 115.441 356.036C115.129 355.988 114.768 355.964 114.36 355.964C113.976 355.964 113.568 355.988 113.135 356.036C112.727 356.084 112.271 356.132 111.766 356.18C110.902 354.835 110.085 353.611 109.317 352.506C108.573 351.377 107.84 350.333 107.12 349.372C106.399 348.387 105.691 347.475 104.994 346.634C104.322 345.77 103.637 344.929 102.941 344.113H102.004C102.004 345.41 102.004 347.018 102.004 348.94C102.028 350.861 102.113 353.274 102.257 356.18C101.944 356.108 101.596 356.048 101.212 356C100.852 355.976 100.504 355.964 100.167 355.964C99.6871 355.964 99.3148 355.988 99.0507 356.036C98.7865 356.084 98.5223 356.132 98.2582 356.18C98.3542 354.043 98.4143 351.869 98.4383 349.66C98.4863 347.451 98.5103 345.025 98.5103 342.384C98.5103 340.703 98.4863 338.938 98.4383 337.088C98.3903 335.239 98.3422 333.294 98.2942 331.253C98.9906 331.325 99.591 331.373 100.095 331.397C100.6 331.397 101.044 331.397 101.428 331.397C101.596 331.397 101.872 331.397 102.257 331.397C102.665 331.397 103.085 331.397 103.517 331.397C103.974 331.373 104.394 331.361 104.778 331.361C105.186 331.361 105.463 331.361 105.607 331.361C106.687 331.361 107.588 331.397 108.308 331.469C109.053 331.541 109.677 331.637 110.181 331.757C110.686 331.877 111.106 332.033 111.442 332.225C111.802 332.418 112.127 332.634 112.415 332.874C113.111 333.426 113.592 334.075 113.856 334.819C114.12 335.539 114.252 336.332 114.252 337.196C114.252 338.493 113.988 339.538 113.46 340.33C112.931 341.123 112.295 341.747 111.55 342.204C110.806 342.66 110.025 342.996 109.209 343.212C108.416 343.404 107.744 343.548 107.192 343.644C107.408 343.981 107.78 344.509 108.308 345.229C108.837 345.926 109.425 346.706 110.073 347.571C110.746 348.435 111.442 349.324 112.163 350.236C112.883 351.149 113.556 352.002 114.18 352.794C114.804 353.587 115.321 354.259 115.729 354.811C116.161 355.34 116.413 355.652 116.485 355.748V356.18ZM127.952 336.008L124.17 344.941H131.843L127.952 336.008ZM123.449 346.742C123.089 347.583 122.585 348.796 121.937 350.381C121.312 351.942 120.7 353.875 120.099 356.18C119.883 356.132 119.667 356.084 119.451 356.036C119.235 355.988 118.959 355.964 118.622 355.964C118.286 355.964 117.998 355.988 117.758 356.036C117.518 356.084 117.278 356.132 117.038 356.18C117.566 355.027 118.142 353.755 118.767 352.362C119.415 350.945 120.075 349.492 120.748 348.003C121.444 346.49 122.141 344.953 122.837 343.392C123.533 341.831 124.194 340.318 124.818 338.853C125.467 337.365 126.067 335.948 126.619 334.603C127.196 333.258 127.7 332.045 128.132 330.965C128.276 330.989 128.408 331.013 128.529 331.037C128.673 331.061 128.841 331.073 129.033 331.073C129.201 331.073 129.333 331.073 129.429 331.073C129.549 331.049 129.681 331.013 129.825 330.965C130.282 332.237 130.858 333.738 131.554 335.467C132.275 337.172 133.031 338.962 133.824 340.835C134.64 342.684 135.445 344.521 136.237 346.346C137.054 348.171 137.774 349.816 138.399 351.281C139.047 352.722 139.575 353.899 139.984 354.811C140.416 355.7 140.632 356.156 140.632 356.18C140.32 356.132 139.996 356.084 139.659 356.036C139.347 355.988 138.963 355.964 138.507 355.964C138.026 355.964 137.606 355.988 137.246 356.036C136.886 356.084 136.537 356.132 136.201 356.18C135.577 353.995 134.928 352.134 134.256 350.597C133.584 349.036 133.019 347.751 132.563 346.742H123.449ZM163.182 343.464C163.182 342.792 163.134 342.071 163.037 341.303C162.941 340.535 162.761 339.766 162.497 338.998C162.233 338.229 161.861 337.497 161.38 336.8C160.9 336.08 160.288 335.431 159.543 334.855C158.919 334.375 158.259 334.015 157.562 333.774C156.866 333.51 156.157 333.318 155.437 333.198C154.716 333.078 153.984 333.006 153.239 332.982C152.519 332.958 151.799 332.946 151.078 332.946C150.646 332.946 150.286 332.946 149.997 332.946C149.733 332.946 149.493 332.958 149.277 332.982C149.061 332.982 148.845 332.994 148.629 333.018C148.436 333.042 148.196 333.066 147.908 333.09C147.836 334.747 147.788 336.464 147.764 338.241C147.74 340.018 147.728 341.735 147.728 343.392C147.728 345.049 147.728 346.382 147.728 347.391C147.728 348.399 147.728 349.264 147.728 349.984C147.752 350.705 147.764 351.389 147.764 352.038C147.788 352.662 147.812 353.418 147.836 354.307C148.461 354.379 149.037 354.439 149.565 354.487C150.118 354.511 150.826 354.523 151.69 354.523C152.075 354.523 152.567 354.523 153.167 354.523C153.768 354.499 154.404 354.439 155.077 354.343C155.773 354.223 156.469 354.043 157.166 353.803C157.862 353.563 158.523 353.226 159.147 352.794C159.988 352.194 160.672 351.509 161.2 350.741C161.729 349.972 162.137 349.168 162.425 348.327C162.713 347.487 162.905 346.646 163.001 345.806C163.121 344.965 163.182 344.185 163.182 343.464ZM167.18 343.032C167.18 345.313 166.796 347.283 166.027 348.94C165.283 350.597 164.274 351.966 163.001 353.046C161.753 354.103 160.3 354.895 158.643 355.424C157.01 355.928 155.293 356.18 153.492 356.18C153.396 356.18 153.083 356.168 152.555 356.144C152.051 356.144 151.474 356.132 150.826 356.108C150.202 356.084 149.589 356.06 148.989 356.036C148.412 356.036 148.004 356.036 147.764 356.036C147.524 356.036 147.284 356.036 147.044 356.036C146.803 356.036 146.539 356.036 146.251 356.036C145.963 356.06 145.627 356.084 145.243 356.108C144.858 356.132 144.414 356.156 143.91 356.18C143.982 355.268 144.042 354.391 144.09 353.55C144.138 352.71 144.174 351.761 144.198 350.705C144.246 349.648 144.282 348.411 144.306 346.994C144.33 345.578 144.342 343.837 144.342 341.771C144.342 340.426 144.33 339.298 144.306 338.385C144.306 337.473 144.294 336.644 144.27 335.9C144.246 335.155 144.21 334.423 144.162 333.702C144.138 332.982 144.102 332.141 144.054 331.181C146.023 331.253 147.992 331.289 149.961 331.289C151.57 331.289 153.011 331.301 154.284 331.325C155.557 331.349 156.71 331.445 157.742 331.613C158.799 331.781 159.759 332.045 160.624 332.406C161.513 332.766 162.377 333.282 163.218 333.954C164.01 334.579 164.658 335.263 165.163 336.008C165.667 336.728 166.063 337.485 166.351 338.277C166.664 339.046 166.88 339.838 167 340.655C167.12 341.447 167.18 342.24 167.18 343.032ZM173.351 343.356C173.351 342.492 173.351 341.747 173.351 341.123C173.351 340.498 173.351 339.922 173.351 339.394C173.351 338.841 173.339 338.325 173.315 337.845C173.315 337.341 173.303 336.788 173.279 336.188C173.255 335.563 173.231 334.867 173.207 334.099C173.183 333.306 173.147 332.357 173.099 331.253C173.387 331.325 173.663 331.385 173.928 331.433C174.216 331.457 174.6 331.469 175.08 331.469C175.585 331.469 175.981 331.457 176.269 331.433C176.557 331.385 176.857 331.325 177.17 331.253C177.05 333.414 176.966 335.563 176.917 337.701C176.893 339.814 176.881 341.951 176.881 344.113C176.881 345.746 176.881 347.163 176.881 348.363C176.905 349.564 176.93 350.633 176.954 351.569C176.978 352.506 177.002 353.346 177.026 354.091C177.074 354.811 177.11 355.508 177.134 356.18C176.797 356.132 176.437 356.084 176.053 356.036C175.693 355.988 175.309 355.964 174.9 355.964C174.492 355.964 174.144 355.988 173.856 356.036C173.567 356.084 173.279 356.132 172.991 356.18C173.063 355.196 173.111 354.307 173.135 353.514C173.183 352.722 173.219 351.869 173.243 350.957C173.291 350.02 173.315 348.964 173.315 347.787C173.339 346.61 173.351 345.133 173.351 343.356ZM186.464 339.826C186.488 341.291 186.5 342.576 186.5 343.68C186.524 344.785 186.548 345.794 186.572 346.706C186.62 347.595 186.656 348.423 186.68 349.192C186.704 349.936 186.728 350.669 186.752 351.389C186.8 352.11 186.848 352.854 186.896 353.623C186.944 354.391 186.992 355.244 187.04 356.18C186.824 356.132 186.596 356.084 186.356 356.036C186.139 355.988 185.863 355.964 185.527 355.964C185.191 355.964 184.927 355.988 184.735 356.036C184.542 356.084 184.338 356.132 184.122 356.18C184.17 355.724 184.218 355.039 184.266 354.127C184.314 353.19 184.362 352.17 184.41 351.065C184.458 349.936 184.494 348.784 184.518 347.607C184.566 346.43 184.59 345.373 184.59 344.437C184.59 344.077 184.578 343.464 184.554 342.6C184.554 341.735 184.542 340.835 184.518 339.898C184.518 338.938 184.506 338.037 184.482 337.196C184.482 336.356 184.482 335.768 184.482 335.431V331.109C184.602 331.133 184.699 331.157 184.771 331.181C184.867 331.181 184.963 331.181 185.059 331.181C185.179 331.181 185.287 331.181 185.383 331.181C185.503 331.157 185.647 331.133 185.815 331.109L187.004 332.514C187.244 332.802 187.484 333.09 187.724 333.378C187.965 333.642 188.241 333.942 188.553 334.279C188.865 334.615 189.213 334.999 189.598 335.431C190.006 335.84 190.486 336.332 191.038 336.908C192.239 338.181 193.272 339.286 194.136 340.222C195.025 341.135 195.805 341.951 196.478 342.672C197.15 343.368 197.751 344.005 198.279 344.581C198.831 345.133 199.372 345.686 199.9 346.238C200.452 346.79 201.017 347.367 201.593 347.967C202.169 348.567 202.842 349.252 203.61 350.02V348.688C203.61 346.382 203.61 344.425 203.61 342.816C203.61 341.183 203.586 339.718 203.538 338.421C203.514 337.124 203.466 335.912 203.394 334.783C203.346 333.63 203.262 332.406 203.142 331.109C203.334 331.157 203.538 331.205 203.754 331.253C203.994 331.301 204.259 331.325 204.547 331.325C204.835 331.325 205.099 331.301 205.339 331.253C205.603 331.205 205.856 331.157 206.096 331.109C205.783 333.726 205.603 336.332 205.555 338.926C205.507 341.495 205.483 344.089 205.483 346.706C205.483 347.403 205.483 348.183 205.483 349.048C205.483 349.912 205.483 350.789 205.483 351.677C205.507 352.542 205.519 353.382 205.519 354.199C205.543 355.015 205.579 355.748 205.627 356.396C205.483 356.372 205.363 356.348 205.267 356.324C205.171 356.324 205.063 356.324 204.943 356.324C204.847 356.324 204.751 356.324 204.655 356.324C204.583 356.348 204.487 356.372 204.367 356.396C204.174 356.18 203.874 355.844 203.466 355.388C203.082 354.907 202.626 354.379 202.097 353.803C201.569 353.202 200.993 352.566 200.368 351.893C199.768 351.221 199.155 350.573 198.531 349.948C197.931 349.3 197.342 348.688 196.766 348.111C196.214 347.535 195.733 347.055 195.325 346.67C195.013 346.382 194.701 346.094 194.388 345.806C194.1 345.494 193.8 345.181 193.488 344.869L186.464 337.557V339.826ZM232.8 336.764C232.583 336.428 232.283 336.02 231.899 335.539C231.539 335.035 231.047 334.567 230.422 334.135C229.822 333.678 229.053 333.294 228.117 332.982C227.204 332.67 226.087 332.514 224.767 332.514C223.446 332.514 222.185 332.742 220.984 333.198C219.808 333.654 218.763 334.351 217.85 335.287C216.938 336.2 216.205 337.353 215.653 338.745C215.125 340.114 214.861 341.735 214.861 343.608C214.861 345.506 215.149 347.175 215.725 348.615C216.301 350.032 217.07 351.221 218.031 352.182C218.991 353.118 220.084 353.827 221.309 354.307C222.557 354.787 223.842 355.027 225.163 355.027C225.283 355.027 225.535 355.027 225.919 355.027C226.304 355.003 226.76 354.955 227.288 354.883C227.817 354.787 228.369 354.643 228.945 354.451C229.546 354.259 230.11 353.995 230.638 353.659C230.662 352.218 230.674 351.065 230.674 350.2C230.674 349.336 230.662 348.615 230.638 348.039C230.638 347.439 230.626 346.922 230.602 346.49C230.578 346.034 230.53 345.518 230.458 344.941C230.77 345.013 231.083 345.073 231.395 345.121C231.707 345.145 232.103 345.157 232.583 345.157C233.04 345.157 233.4 345.133 233.664 345.085C233.952 345.037 234.228 344.989 234.493 344.941C234.397 346.022 234.313 347.127 234.24 348.255C234.168 349.384 234.132 350.633 234.132 352.002C234.132 352.434 234.132 352.878 234.132 353.334C234.156 353.791 234.192 354.223 234.24 354.631C233.4 354.919 232.595 355.196 231.827 355.46C231.059 355.7 230.278 355.904 229.486 356.072C228.693 356.264 227.865 356.408 227 356.504C226.16 356.6 225.235 356.648 224.226 356.648C222.233 356.648 220.408 356.336 218.751 355.712C217.094 355.087 215.665 354.211 214.464 353.082C213.288 351.93 212.375 350.561 211.727 348.976C211.078 347.391 210.754 345.626 210.754 343.68C210.754 341.975 211.03 340.354 211.583 338.817C212.135 337.281 212.987 335.936 214.14 334.783C215.293 333.606 216.746 332.682 218.499 332.009C220.252 331.313 222.317 330.965 224.695 330.965C226.4 330.965 228.129 331.157 229.882 331.541C231.635 331.925 233.148 332.442 234.421 333.09C234.012 333.93 233.724 334.675 233.556 335.323C233.388 335.948 233.268 336.428 233.196 336.764H232.8ZM253.416 354.127C254.28 354.175 254.941 354.199 255.397 354.199C255.853 354.199 256.31 354.199 256.766 354.199C257.222 354.199 257.738 354.199 258.315 354.199C258.915 354.175 259.504 354.151 260.08 354.127C260.68 354.079 261.257 354.031 261.809 353.983C262.385 353.911 262.878 353.839 263.286 353.767C263.238 353.935 263.202 354.115 263.178 354.307C263.154 354.475 263.142 354.691 263.142 354.955C263.142 355.244 263.154 355.484 263.178 355.676C263.202 355.868 263.238 356.036 263.286 356.18C262.709 356.156 262.157 356.132 261.629 356.108C261.124 356.084 260.572 356.06 259.972 356.036C259.395 356.012 258.747 356 258.027 356C257.33 355.976 256.49 355.964 255.505 355.964C254.713 355.964 254.04 355.976 253.488 356C252.959 356 252.479 356.012 252.047 356.036C251.615 356.06 251.194 356.084 250.786 356.108C250.402 356.132 249.97 356.156 249.489 356.18C249.561 355.027 249.621 353.923 249.669 352.866C249.717 351.785 249.742 350.717 249.742 349.66C249.766 348.579 249.778 347.499 249.778 346.418C249.802 345.337 249.814 344.209 249.814 343.032C249.814 341.807 249.802 340.583 249.778 339.358C249.754 338.109 249.717 336.956 249.669 335.9C249.645 334.819 249.621 333.87 249.597 333.054C249.573 332.237 249.549 331.637 249.525 331.253C249.814 331.301 250.09 331.349 250.354 331.397C250.642 331.445 251.014 331.469 251.471 331.469C251.951 331.469 252.359 331.445 252.695 331.397C253.056 331.349 253.404 331.301 253.74 331.253C253.692 332.79 253.644 334.171 253.596 335.395C253.572 336.596 253.548 337.737 253.524 338.817C253.5 339.874 253.476 340.919 253.452 341.951C253.452 342.984 253.44 344.089 253.416 345.265C253.416 346.442 253.416 347.751 253.416 349.192C253.416 350.609 253.416 352.254 253.416 354.127ZM271.427 354.127C272.291 354.175 272.952 354.199 273.408 354.199C273.864 354.199 274.321 354.199 274.777 354.199C275.233 354.199 275.749 354.199 276.326 354.199C276.926 354.175 277.515 354.151 278.091 354.127C278.691 354.079 279.268 354.031 279.82 353.983C280.396 353.911 280.889 353.839 281.297 353.767C281.249 353.935 281.213 354.115 281.189 354.307C281.165 354.475 281.153 354.691 281.153 354.955C281.153 355.244 281.165 355.484 281.189 355.676C281.213 355.868 281.249 356.036 281.297 356.18C280.721 356.156 280.168 356.132 279.64 356.108C279.136 356.084 278.583 356.06 277.983 356.036C277.406 356.012 276.758 356 276.038 356C275.341 355.976 274.501 355.964 273.516 355.964C272.724 355.964 272.051 355.976 271.499 356C270.971 356 270.49 356.012 270.058 356.036C269.626 356.06 269.205 356.084 268.797 356.108C268.413 356.132 267.981 356.156 267.5 356.18C267.572 355.027 267.632 353.923 267.681 352.866C267.729 351.785 267.753 350.717 267.753 349.66C267.777 348.579 267.789 347.499 267.789 346.418C267.813 345.337 267.825 344.209 267.825 343.032C267.825 341.807 267.813 340.583 267.789 339.358C267.765 338.109 267.729 336.956 267.681 335.9C267.656 334.819 267.632 333.87 267.608 333.054C267.584 332.237 267.56 331.637 267.536 331.253C267.825 331.301 268.101 331.349 268.365 331.397C268.653 331.445 269.025 331.469 269.482 331.469C269.962 331.469 270.37 331.445 270.706 331.397C271.067 331.349 271.415 331.301 271.751 331.253C271.703 332.79 271.655 334.171 271.607 335.395C271.583 336.596 271.559 337.737 271.535 338.817C271.511 339.874 271.487 340.919 271.463 341.951C271.463 342.984 271.451 344.089 271.427 345.265C271.427 346.442 271.427 347.751 271.427 349.192C271.427 350.609 271.427 352.254 271.427 354.127ZM306.728 351.353C306.632 351.761 306.548 352.182 306.476 352.614C306.428 353.046 306.38 353.599 306.332 354.271C304.987 355.063 303.559 355.652 302.046 356.036C300.533 356.42 298.984 356.612 297.399 356.612C295.309 356.612 293.448 356.288 291.815 355.64C290.182 354.991 288.789 354.091 287.637 352.938C286.508 351.785 285.644 350.429 285.043 348.868C284.467 347.283 284.179 345.566 284.179 343.716C284.179 341.987 284.455 340.354 285.007 338.817C285.559 337.256 286.4 335.9 287.529 334.747C288.657 333.594 290.086 332.682 291.815 332.009C293.544 331.337 295.598 331.001 297.975 331.001C299.056 331.001 300.052 331.073 300.965 331.217C301.877 331.337 302.706 331.493 303.45 331.685C304.195 331.877 304.843 332.093 305.396 332.333C305.972 332.55 306.464 332.742 306.873 332.91C306.728 333.27 306.608 333.594 306.512 333.882C306.44 334.147 306.368 334.411 306.296 334.675C306.248 334.915 306.2 335.179 306.152 335.467C306.104 335.756 306.056 336.104 306.008 336.512H305.648C305.408 336.008 305.035 335.515 304.531 335.035C304.027 334.555 303.426 334.135 302.73 333.774C302.058 333.39 301.301 333.09 300.461 332.874C299.62 332.658 298.744 332.55 297.831 332.55C296.414 332.55 295.117 332.802 293.941 333.306C292.788 333.81 291.791 334.543 290.951 335.503C290.134 336.464 289.498 337.641 289.042 339.034C288.585 340.402 288.357 341.951 288.357 343.68C288.357 345.554 288.621 347.199 289.15 348.615C289.702 350.008 290.422 351.173 291.311 352.11C292.224 353.022 293.268 353.719 294.445 354.199C295.622 354.655 296.846 354.883 298.119 354.883C298.527 354.883 299.044 354.847 299.668 354.775C300.317 354.703 301.013 354.547 301.757 354.307C302.502 354.043 303.27 353.671 304.063 353.19C304.855 352.686 305.6 352.014 306.296 351.173L306.728 351.353Z" fill="#D4D4D4"/>
</svg>
